<?xml version="1.0" encoding="UTF-8"?>
<!DOCTYPE svg PUBLIC "-//W3C//DTD SVG 1.1//EN" "http://www.w3.org/Graphics/SVG/1.1/DTD/svg11.dtd">
<svg xmlns="http://www.w3.org/2000/svg" version="1.1" width="512px" height="512px" style="shape-rendering:geometricPrecision; text-rendering:geometricPrecision; image-rendering:optimizeQuality; fill-rule:evenodd; clip-rule:evenodd" xmlns:xlink="http://www.w3.org/1999/xlink">
<g><path style="opacity:0.969" fill="#010000" d="M 90.5,-0.5 C 95.8333,-0.5 101.167,-0.5 106.5,-0.5C 129.819,6.26278 135.986,20.5961 125,42.5C 123.167,44.3333 121.333,46.1667 119.5,48C 111.837,51.8294 104.504,56.1627 97.5,61C 85.6688,72.8102 81.5021,86.9768 85,103.5C 86.7709,116.584 90.1042,129.25 95,141.5C 129.606,129.206 162.106,133.372 192.5,154C 226.077,179.016 252.244,210.182 271,247.5C 289.78,285.006 303.28,324.339 311.5,365.5C 336.506,374.495 359.172,387.328 379.5,404C 385.542,410.373 391.208,417.04 396.5,424C 411.492,423.667 426.492,423.667 441.5,424C 457.012,424.125 471.345,428.125 484.5,436C 498.737,450.121 497.404,462.788 480.5,474C 439.928,495.138 396.928,507.638 351.5,511.5C 339.833,511.5 328.167,511.5 316.5,511.5C 268.168,507.494 222.501,493.994 179.5,471C 126.164,441.347 79.6639,403.18 40,356.5C 26.3879,338.956 15.0546,319.956 6,299.5C 3.37384,291.493 1.20717,283.493 -0.5,275.5C -0.5,265.167 -0.5,254.833 -0.5,244.5C 5.06163,213.213 20.0616,187.38 44.5,167C 31.1689,142.509 24.6689,116.342 25,88.5C 29.1266,45.5731 50.96,15.9064 90.5,-0.5 Z"/></g>
<g><path style="opacity:1" fill="#539213" d="M 78.5,149.5 C 73.3656,149.116 68.5323,150.449 64,153.5C 54.1208,131.537 49.4541,108.537 50,84.5C 51.4813,69.3544 58.648,57.8544 71.5,50C 79.6201,46.5275 86.7868,41.6941 93,35.5C 95.6353,29.6779 96.1353,23.6779 94.5,17.5C 100.917,15.5892 106.75,16.9225 112,21.5C 113.369,26.4374 112.203,30.604 108.5,34C 73.1123,49.2759 59.9456,75.7759 69,113.5C 71.5414,125.665 74.708,137.665 78.5,149.5 Z"/></g>
<g><path style="opacity:1" fill="#5ea716" d="M 94.5,17.5 C 96.1353,23.6779 95.6353,29.6779 93,35.5C 86.7868,41.6941 79.6201,46.5275 71.5,50C 58.648,57.8544 51.4813,69.3544 50,84.5C 49.4541,108.537 54.1208,131.537 64,153.5C 68.5323,150.449 73.3656,149.116 78.5,149.5C 79.7113,152.926 81.2113,156.259 83,159.5C 84.7395,160.894 86.7395,161.561 89,161.5C 98.0197,158.243 107.186,155.41 116.5,153C 123.158,152.5 129.825,152.334 136.5,152.5C 126.93,175.347 129.93,196.514 145.5,216C 145.272,216.399 144.938,216.565 144.5,216.5C 131.235,212.415 120.235,204.915 111.5,194C 106.469,190.876 101.136,189.209 95.5,189C 94.0692,189.465 92.9025,190.299 92,191.5C 82.6917,211.969 70.5251,230.469 55.5,247C 53.5453,249.071 51.212,249.738 48.5,249C 43.6237,239.459 41.1237,229.293 41,218.5C 40.3333,210.833 40.3333,203.167 41,195.5C 47.6746,187.826 55.0079,180.826 63,174.5C 63.8749,173.127 64.3749,171.627 64.5,170C 56.4674,153.431 49.9674,136.264 45,118.5C 36.5932,80.7123 47.4265,49.8789 77.5,26C 82.6421,22.0956 88.3088,19.2623 94.5,17.5 Z"/></g>
<g><path style="opacity:0.966" fill="#010000" d="M 511.5,74.5 C 511.5,77.1667 511.5,79.8333 511.5,82.5C 483.518,107.118 467.018,138.118 462,175.5C 460.957,197.488 460.29,219.488 460,241.5C 458.405,312.431 422.571,353.597 352.5,365C 348.167,365.667 343.833,365.667 339.5,365C 328.411,357.583 320.744,347.583 316.5,335C 316.408,332.186 317.408,329.853 319.5,328C 339.861,323.789 352.861,311.956 358.5,292.5C 342.66,298.362 326.327,300.529 309.5,299C 308.167,298.333 306.833,297.667 305.5,297C 300.346,284.884 295.179,272.718 290,260.5C 290.082,245.727 297.582,236.894 312.5,234C 329.134,235.097 345.801,235.431 362.5,235C 377.504,234.341 390.004,228.508 400,217.5C 403.763,212.322 406.096,206.655 407,200.5C 392.682,209.52 377.182,212.02 360.5,208C 340.894,200.182 320.56,195.682 299.5,194.5C 284.121,197.184 268.787,197.018 253.5,194C 251.754,193.529 250.087,192.862 248.5,192C 241.372,183.203 233.872,174.703 226,166.5C 225.048,160.638 225.715,154.972 228,149.5C 230.876,143.577 234.376,138.077 238.5,133C 234.706,133.2 231.039,134.2 227.5,136C 221.859,139.645 216.859,143.978 212.5,149C 210.167,149.667 207.833,149.667 205.5,149C 193.52,140.176 180.52,133.176 166.5,128C 164.627,125.887 163.627,123.387 163.5,120.5C 174.56,82.2726 199.227,57.4392 237.5,46C 286.061,35.2776 333.061,40.1109 378.5,60.5C 381.722,64.1644 382.222,68.1644 380,72.5C 370.825,79.2538 362.491,86.9205 355,95.5C 349.056,102.978 347.056,111.311 349,120.5C 356.618,133.549 367.784,137.716 382.5,133C 388.61,130.779 394.277,127.779 399.5,124C 409.7,111.954 420.367,100.288 431.5,89C 442.067,80.5831 454.067,75.2497 467.5,73C 480.436,70.9496 493.436,69.9496 506.5,70C 508.687,71.025 510.354,72.525 511.5,74.5 Z"/></g>
<g><path style="opacity:1" fill="#fd9601" d="M 331.5,63.5 C 323.673,71.1415 317.839,80.1415 314,90.5C 310.421,107.639 316.588,119.639 332.5,126.5C 337.879,139.046 347.213,147.213 360.5,151C 390.364,153.484 413.198,141.984 429,116.5C 434.404,110.591 440.237,105.258 446.5,100.5C 434.002,123.054 426.668,147.054 424.5,172.5C 421.993,169.964 418.993,169.131 415.5,170C 409.127,176.042 402.46,181.708 395.5,187C 387.187,192.17 378.187,193.836 368.5,192C 351.651,185.621 334.317,181.121 316.5,178.5C 311.106,176.226 305.44,174.393 299.5,173C 284.533,171.668 269.533,171.168 254.5,171.5C 250.685,167.515 247.019,163.349 243.5,159C 248.431,148.733 254.931,139.566 263,131.5C 266.666,126.506 266.166,122.006 261.5,118C 256.601,116.309 251.601,115.143 246.5,114.5C 231.151,108.518 215.484,108.018 199.5,113C 196.102,114.357 193.102,116.19 190.5,118.5C 187.9,117.532 185.566,116.199 183.5,114.5C 198.385,83.1988 223.051,64.6988 257.5,59C 282.48,56.0537 307.147,57.5537 331.5,63.5 Z"/></g>
<g><path style="opacity:1" fill="#f27a00" d="M 331.5,63.5 C 339.297,65.3666 346.964,67.6999 354.5,70.5C 340.517,81.4859 332.517,95.8192 330.5,113.5C 330.654,117.931 331.32,122.264 332.5,126.5C 316.588,119.639 310.421,107.639 314,90.5C 317.839,80.1415 323.673,71.1415 331.5,63.5 Z"/></g>
<g><path style="opacity:1" fill="#f27a00" d="M 349.5,334.5 C 390.565,322.577 414.731,295.244 422,252.5C 424.662,236.758 425.496,221.092 424.5,205.5C 426.431,195.26 426.931,184.927 426,174.5C 425.283,173.956 424.783,173.289 424.5,172.5C 426.668,147.054 434.002,123.054 446.5,100.5C 456.405,92.7004 467.738,89.2004 480.5,90C 459.185,115.583 447.019,145.083 444,178.5C 444.006,204.878 443.006,231.211 441,257.5C 438.567,291.897 422.401,317.397 392.5,334C 377.49,342.229 361.49,346.563 344.5,347C 342.443,345.281 340.776,343.281 339.5,341C 342.662,338.585 345.995,336.418 349.5,334.5 Z"/></g>
<g><path style="opacity:1" fill="#f27a00" d="M 246.5,114.5 C 238.883,113.912 231.55,115.079 224.5,118C 218.394,121.118 212.561,124.618 207,128.5C 201.405,125.288 195.905,121.954 190.5,118.5C 193.102,116.19 196.102,114.357 199.5,113C 215.484,108.018 231.151,108.518 246.5,114.5 Z"/></g>
<g><path style="opacity:1" fill="#529113" d="M 136.5,152.5 C 140.897,152.425 145.23,152.925 149.5,154C 150.428,154.388 151.095,155.055 151.5,156C 144.683,179.253 148.683,200.586 163.5,220C 156.685,220.873 150.351,219.707 144.5,216.5C 144.938,216.565 145.272,216.399 145.5,216C 129.93,196.514 126.93,175.347 136.5,152.5 Z"/></g>
<g><path style="opacity:1" fill="#c61d1d" d="M 457.5,465.5 C 457.664,462.813 457.497,460.146 457,457.5C 455.167,455.667 453.333,453.833 451.5,452C 436.11,446.763 420.276,444.263 404,444.5C 392.767,444.525 381.601,445.192 370.5,446.5C 368.658,443.712 366.158,441.712 363,440.5C 352.236,422.735 337.403,409.569 318.5,401C 304.374,394.267 290.374,387.6 276.5,381C 266.475,323.906 245.308,271.406 213,223.5C 199.311,204.645 183.144,188.311 164.5,174.5C 164.165,169.15 165.665,164.484 169,160.5C 198.941,178.774 223.274,202.774 242,232.5C 269.128,276.538 286.794,324.205 295,375.5C 295.465,376.931 296.299,378.097 297.5,379C 318.727,386.73 338.727,396.73 357.5,409C 369.143,416.974 378.31,427.141 385,439.5C 385.903,440.701 387.069,441.535 388.5,442C 408.484,441.467 428.484,441.467 448.5,442C 456.918,442.917 464.918,445.251 472.5,449C 474.638,450.422 475.805,452.255 476,454.5C 470.687,459.574 464.52,463.241 457.5,465.5 Z"/></g>
<g><path style="opacity:1" fill="#ef7900" d="M 254.5,171.5 C 269.533,171.168 284.533,171.668 299.5,173C 305.44,174.393 311.106,176.226 316.5,178.5C 298.508,177.641 280.508,177.474 262.5,178C 259.116,176.79 256.45,174.623 254.5,171.5 Z"/></g>
<g><path style="opacity:1" fill="#f34234" d="M 164.5,174.5 C 183.144,188.311 199.311,204.645 213,223.5C 245.308,271.406 266.475,323.906 276.5,381C 290.374,387.6 304.374,394.267 318.5,401C 337.403,409.569 352.236,422.735 363,440.5C 366.158,441.712 368.658,443.712 370.5,446.5C 381.601,445.192 392.767,444.525 404,444.5C 420.276,444.263 436.11,446.763 451.5,452C 453.333,453.833 455.167,455.667 457,457.5C 457.497,460.146 457.664,462.813 457.5,465.5C 399.083,493.009 338.083,500.509 274.5,488C 225.225,475.859 180.225,454.859 139.5,425C 114.186,406.03 90.353,385.197 68,362.5C 50.5939,342.747 35.9272,321.081 24,297.5C 14.0614,272.843 14.0614,248.176 24,223.5C 25.6455,229.685 26.9788,236.019 28,242.5C 29.7145,253.129 35.2145,260.963 44.5,266C 51.0333,267.158 57.0333,265.824 62.5,262C 74.2331,252.679 83.7331,241.512 91,228.5C 94.6667,221.833 98.3333,215.167 102,208.5C 124.668,231.392 152.168,241.226 184.5,238C 189.426,235.647 191.26,231.814 190,226.5C 181.523,217.549 174.523,207.549 169,196.5C 165.914,189.488 164.414,182.155 164.5,174.5 Z"/></g>
<g><path style="opacity:1" fill="#fb9501" d="M 424.5,205.5 C 425.496,221.092 424.662,236.758 422,252.5C 414.731,295.244 390.565,322.577 349.5,334.5C 361.863,325.621 370.696,313.954 376,299.5C 379.788,291.15 382.121,282.484 383,273.5C 380.179,269.337 376.345,267.837 371.5,269C 369.257,270.136 366.924,270.97 364.5,271.5C 352.155,269.165 339.821,266.665 327.5,264C 321.95,263.003 316.617,263.503 311.5,265.5C 310.044,262.753 308.711,259.92 307.5,257C 309.032,253.56 311.698,251.56 315.5,251C 332.11,252.406 348.777,252.739 365.5,252C 395.89,249.836 415.557,234.336 424.5,205.5 Z"/></g>
<g><path style="opacity:1" fill="#f07a00" d="M 364.5,271.5 C 349.632,278.077 333.966,281.744 317.5,282.5C 315.898,276.694 313.898,271.027 311.5,265.5C 316.617,263.503 321.95,263.003 327.5,264C 339.821,266.665 352.155,269.165 364.5,271.5 Z"/></g>
<g><path style="opacity:1" fill="#050100" d="M 86.5,335.5 C 89.1873,335.336 91.854,335.503 94.5,336C 118.818,360.851 144.652,383.685 172,404.5C 173.553,413.614 169.72,417.447 160.5,416C 133.226,396.073 107.726,373.906 84,349.5C 81.418,344.12 82.2514,339.453 86.5,335.5 Z"/></g>
<g><path style="opacity:1" fill="#060100" d="M 208.5,428.5 C 211.607,428.351 214.607,428.851 217.5,430C 235.764,438.977 254.764,445.977 274.5,451C 278.768,453.28 280.268,456.78 279,461.5C 276.647,466.426 272.814,468.26 267.5,467C 246.661,461.499 226.661,453.832 207.5,444C 201.974,438.357 202.308,433.19 208.5,428.5 Z"/></g>
</svg>
